<svg width="130" height="49" viewBox="0 0 130 49" fill="none" xmlns="http://www.w3.org/2000/svg">
<path d="M90.7573 32.2726C89.4263 32.2726 88.3098 32.0804 87.4077 31.6959C86.5204 31.2966 85.855 30.7642 85.4113 30.0987C84.9677 29.4185 84.7458 28.6495 84.7458 27.7918V27.3925H88.1176V27.814C88.1176 28.3611 88.3246 28.7974 88.7387 29.1227C89.1527 29.4481 89.7664 29.6107 90.5798 29.6107C91.3932 29.6107 91.9995 29.4259 92.3988 29.0562C92.798 28.6717 92.9977 28.1319 92.9977 27.4369C92.9977 26.9489 92.9016 26.5644 92.7093 26.2834C92.5171 26.0024 92.2583 25.8028 91.9329 25.6845C91.6224 25.5514 91.2748 25.4848 90.8904 25.4848H89.4485V23.0004H90.7351C91.1048 23.0004 91.4301 22.9339 91.7111 22.8008C92.0069 22.6529 92.2361 22.4384 92.3988 22.1575C92.5762 21.8765 92.6649 21.5216 92.6649 21.0927C92.6649 20.6934 92.5836 20.3533 92.4209 20.0723C92.2583 19.7766 92.0143 19.5547 91.6889 19.4069C91.3784 19.2442 91.0087 19.1629 90.5798 19.1629C90.1805 19.1629 89.8108 19.2368 89.4707 19.3847C89.1453 19.5326 88.8866 19.7396 88.6943 20.0058C88.5168 20.272 88.4281 20.5825 88.4281 20.9374V21.2258H85.1673V20.6713C85.1673 19.8727 85.3891 19.1629 85.8328 18.5418C86.2912 17.9059 86.9419 17.4105 87.7848 17.0555C88.6278 16.6858 89.626 16.501 90.7794 16.501C91.9181 16.501 92.9016 16.6784 93.7297 17.0334C94.5578 17.3735 95.1937 17.8615 95.6374 18.4974C96.081 19.1185 96.3028 19.8357 96.3028 20.6491C96.3028 21.1962 96.1993 21.699 95.9923 22.1575C95.8 22.6011 95.5265 22.9782 95.1715 23.2888C94.8314 23.5993 94.4321 23.8507 93.9737 24.043V24.1317C94.8018 24.3831 95.4599 24.8341 95.9479 25.4848C96.4359 26.1207 96.6799 26.9193 96.6799 27.8805C96.6652 28.7382 96.4285 29.4998 95.9701 30.1653C95.5117 30.816 94.8462 31.3336 93.9737 31.7181C93.1012 32.0878 92.029 32.2726 90.7573 32.2726Z" fill="#414141"/>
<path d="M104.266 32.2726C103.261 32.2726 102.373 32.1321 101.604 31.8511C100.85 31.5702 100.207 31.1339 99.6746 30.5424C99.157 29.9509 98.7651 29.1819 98.4989 28.2354C98.2475 27.2742 98.1218 26.1281 98.1218 24.7972C98.1218 23.274 98.2475 21.9874 98.4989 20.9374C98.7651 19.8727 99.1496 19.015 99.6524 18.3643C100.17 17.7136 100.806 17.2404 101.56 16.9446C102.329 16.6489 103.209 16.501 104.2 16.501C105.368 16.501 106.359 16.708 107.172 17.1221C107.986 17.5214 108.607 18.0907 109.035 18.8301C109.464 19.5695 109.679 20.4494 109.679 21.4698H106.285C106.285 20.9522 106.204 20.5234 106.041 20.1832C105.878 19.8431 105.642 19.5843 105.331 19.4069C105.02 19.2294 104.643 19.1407 104.2 19.1407C103.549 19.1407 103.046 19.3033 102.691 19.6287C102.351 19.954 102.115 20.442 101.982 21.0927C101.863 21.7286 101.804 22.5346 101.804 23.5106C102.011 23.3036 102.285 23.1039 102.625 22.9117C102.965 22.7194 103.342 22.5641 103.756 22.4458C104.185 22.3275 104.621 22.2684 105.065 22.2684C106.1 22.2684 106.995 22.468 107.749 22.8673C108.503 23.2518 109.087 23.8064 109.501 24.531C109.915 25.2408 110.122 26.0911 110.122 27.0819C110.122 28.1763 109.871 29.1079 109.368 29.8769C108.88 30.6459 108.2 31.2374 107.327 31.6515C106.455 32.0656 105.435 32.2726 104.266 32.2726ZM104.2 29.6329C104.717 29.6329 105.146 29.5368 105.486 29.3445C105.826 29.1375 106.078 28.8491 106.241 28.4794C106.418 28.1097 106.507 27.6809 106.507 27.1929C106.507 26.6901 106.418 26.2538 106.241 25.8841C106.078 25.5144 105.826 25.226 105.486 25.019C105.146 24.7972 104.717 24.6863 104.2 24.6863C103.697 24.6863 103.268 24.7898 102.913 24.9968C102.573 25.2038 102.314 25.4922 102.137 25.8619C101.974 26.2168 101.893 26.6531 101.893 27.1707C101.893 27.6587 101.974 28.0875 102.137 28.4573C102.314 28.827 102.573 29.1153 102.913 29.3224C103.268 29.5294 103.697 29.6329 104.2 29.6329Z" fill="#414141"/>
<path d="M117.354 32.2726C116.289 32.2726 115.38 32.1173 114.625 31.8068C113.871 31.4814 113.258 31.0008 112.784 30.3649C112.311 29.7143 111.964 28.8935 111.742 27.9027C111.52 26.9119 111.409 25.7362 111.409 24.3757C111.409 23.03 111.52 21.8617 111.742 20.8709C111.964 19.8801 112.311 19.0667 112.784 18.4308C113.258 17.7802 113.871 17.2995 114.625 16.989C115.38 16.6636 116.289 16.501 117.354 16.501C118.419 16.501 119.321 16.6636 120.06 16.989C120.814 17.2995 121.428 17.7802 121.901 18.4308C122.374 19.0667 122.722 19.8801 122.944 20.8709C123.166 21.8617 123.277 23.03 123.277 24.3757C123.277 25.7362 123.166 26.9119 122.944 27.9027C122.722 28.8935 122.374 29.7143 121.901 30.3649C121.428 31.0008 120.814 31.4814 120.06 31.8068C119.321 32.1173 118.419 32.2726 117.354 32.2726ZM117.354 29.6329C117.945 29.6329 118.404 29.4776 118.729 29.1671C119.069 28.8417 119.299 28.3611 119.417 27.7252C119.55 27.0746 119.616 26.2538 119.616 25.263V23.5328C119.616 22.5272 119.55 21.699 119.417 21.0484C119.299 20.3977 119.069 19.9171 118.729 19.6065C118.404 19.296 117.945 19.1407 117.354 19.1407C116.762 19.1407 116.297 19.296 115.956 19.6065C115.631 19.9171 115.402 20.3977 115.269 21.0484C115.136 21.6842 115.069 22.505 115.069 23.5106V25.2186C115.069 26.2242 115.136 27.0524 115.269 27.7031C115.402 28.3537 115.631 28.8417 115.956 29.1671C116.297 29.4776 116.762 29.6329 117.354 29.6329Z" fill="#414141"/>
<path d="M105.44 46.6933C117.951 46.6933 128.093 36.551 128.093 24.0398C128.093 21.8908 127.794 19.8117 127.235 17.8418C127.712 17.7863 128.157 17.6233 128.544 17.3776C129.153 19.4931 129.48 21.7284 129.48 24.0398C129.48 37.3167 118.717 48.0797 105.44 48.0797C95.9121 48.0797 87.679 42.537 83.7889 34.5003H85.3408C89.1197 41.7463 96.702 46.6933 105.44 46.6933Z" fill="url(#paint0_linear_4232_1010)"/>
<path d="M126.077 11.7028C121.877 4.69252 114.206 0 105.44 0C95.6362 0 87.2033 5.86822 83.462 14.2837H84.989C88.6344 6.65585 96.4217 1.3864 105.44 1.3864C113.672 1.3864 120.878 5.77715 124.845 12.3445C125.197 12.0454 125.616 11.823 126.077 11.7028Z" fill="url(#paint1_linear_4232_1010)"/>
<path fill-rule="evenodd" clip-rule="evenodd" d="M126.869 16.4794C127.833 16.4794 128.614 15.6985 128.614 14.7352C128.614 13.7718 127.833 12.9909 126.869 12.9909C125.906 12.9909 125.125 13.7718 125.125 14.7352C125.125 15.6985 125.906 16.4794 126.869 16.4794ZM126.869 17.8658C128.598 17.8658 130 16.4642 130 14.7352C130 13.0061 128.598 11.6045 126.869 11.6045C125.14 11.6045 123.739 13.0061 123.739 14.7352C123.739 16.4642 125.14 17.8658 126.869 17.8658Z" fill="#414141"/>
<path d="M0.593628 32.0166V16.7773H6.38321L8.22435 23.5651C8.29829 23.8017 8.38702 24.1271 8.49053 24.5412C8.59405 24.9404 8.69757 25.3619 8.80109 25.8056C8.9046 26.2492 8.99333 26.6485 9.06728 27.0034H9.24473C9.30389 26.7224 9.37783 26.3897 9.46656 26.0052C9.55529 25.6059 9.65141 25.1918 9.75493 24.763C9.85845 24.3193 9.95457 23.9127 10.0433 23.543L11.9066 16.7773H17.5409V32.0166H13.6812V25.5172C13.6812 24.8813 13.6812 24.238 13.6812 23.5873C13.696 22.9366 13.7108 22.3451 13.7256 21.8127C13.7404 21.2804 13.7477 20.8959 13.7477 20.6593H13.5703C13.5259 20.8811 13.452 21.2064 13.3485 21.6353C13.2597 22.0493 13.1562 22.4856 13.0379 22.944C12.9344 23.3877 12.8383 23.7722 12.7495 24.0975L10.5313 32.0166H7.33705L5.09664 24.0975C5.0227 23.8017 4.93397 23.4468 4.83045 23.0328C4.72693 22.6187 4.62342 22.1972 4.5199 21.7684C4.43117 21.3395 4.34983 20.9772 4.27589 20.6814H4.09843C4.11322 21.0659 4.12801 21.5392 4.1428 22.1011C4.15759 22.6483 4.17238 23.225 4.18716 23.8313C4.20195 24.4229 4.20935 24.9848 4.20935 25.5172V32.0166H0.593628Z" fill="black"/>
<path d="M0.593628 32.0166V16.7773H6.38321L8.22435 23.5651C8.29829 23.8017 8.38702 24.1271 8.49053 24.5412C8.59405 24.9404 8.69757 25.3619 8.80109 25.8056C8.9046 26.2492 8.99333 26.6485 9.06728 27.0034H9.24473C9.30389 26.7224 9.37783 26.3897 9.46656 26.0052C9.55529 25.6059 9.65141 25.1918 9.75493 24.763C9.85845 24.3193 9.95457 23.9127 10.0433 23.543L11.9066 16.7773H17.5409V32.0166H13.6812V25.5172C13.6812 24.8813 13.6812 24.238 13.6812 23.5873C13.696 22.9366 13.7108 22.3451 13.7256 21.8127C13.7404 21.2804 13.7477 20.8959 13.7477 20.6593H13.5703C13.5259 20.8811 13.452 21.2064 13.3485 21.6353C13.2597 22.0493 13.1562 22.4856 13.0379 22.944C12.9344 23.3877 12.8383 23.7722 12.7495 24.0975L10.5313 32.0166H7.33705L5.09664 24.0975C5.0227 23.8017 4.93397 23.4468 4.83045 23.0328C4.72693 22.6187 4.62342 22.1972 4.5199 21.7684C4.43117 21.3395 4.34983 20.9772 4.27589 20.6814H4.09843C4.11322 21.0659 4.12801 21.5392 4.1428 22.1011C4.15759 22.6483 4.17238 23.225 4.18716 23.8313C4.20195 24.4229 4.20935 24.9848 4.20935 25.5172V32.0166H0.593628Z" fill="black" fill-opacity="0.2"/>
<path d="M18.474 32.0166V16.7773H31.0513V19.8829H22.4446V22.7444H29.9644V25.7834H22.4446V28.9111H31.2066V32.0166H18.474Z" fill="black"/>
<path d="M18.474 32.0166V16.7773H31.0513V19.8829H22.4446V22.7444H29.9644V25.7834H22.4446V28.9111H31.2066V32.0166H18.474Z" fill="black" fill-opacity="0.2"/>
<path d="M35.2043 32.0166V25.983L29.2372 16.7773H33.829L37.2451 22.4782H37.356L40.7499 16.7773H45.0976L39.1971 25.983V32.0166H35.2043Z" fill="black"/>
<path d="M35.2043 32.0166V25.983L29.2372 16.7773H33.829L37.2451 22.4782H37.356L40.7499 16.7773H45.0976L39.1971 25.983V32.0166H35.2043Z" fill="black" fill-opacity="0.2"/>
<path d="M42.6669 32.0166V30.5304L50.2311 19.8829H43.2215V16.7773H56.2869V18.2636L48.7227 28.9111H56.4643V32.0166H42.6669Z" fill="black"/>
<path d="M42.6669 32.0166V30.5304L50.2311 19.8829H43.2215V16.7773H56.2869V18.2636L48.7227 28.9111H56.4643V32.0166H42.6669Z" fill="black" fill-opacity="0.2"/>
<path d="M56.9222 32.0166V16.7773H69.4995V19.8829H60.8928V22.7444H68.4126V25.7834H60.8928V28.9111H69.6548V32.0166H56.9222Z" fill="black"/>
<path d="M56.9222 32.0166V16.7773H69.4995V19.8829H60.8928V22.7444H68.4126V25.7834H60.8928V28.9111H69.6548V32.0166H56.9222Z" fill="black" fill-opacity="0.2"/>
<path d="M70.3917 32.0166V16.7773H79.2424C80.3663 16.7773 81.3054 16.9918 82.0596 17.4206C82.8138 17.8347 83.3757 18.4114 83.7454 19.1509C84.1299 19.8755 84.3222 20.6888 84.3222 21.5909C84.3222 22.5669 84.093 23.4394 83.6345 24.2084C83.1909 24.9626 82.5624 25.5542 81.749 25.983L84.8102 32.0166H80.3737L77.845 26.6485H74.3623V32.0166H70.3917ZM74.3623 23.6982H78.4661C79.0132 23.6982 79.4495 23.5208 79.7748 23.1659C80.115 22.7961 80.285 22.3081 80.285 21.7018C80.285 21.3025 80.2111 20.9624 80.0632 20.6814C79.9153 20.4005 79.7083 20.186 79.4421 20.0381C79.1759 19.8755 78.8506 19.7941 78.4661 19.7941H74.3623V23.6982Z" fill="black"/>
<path d="M70.3917 32.0166V16.7773H79.2424C80.3663 16.7773 81.3054 16.9918 82.0596 17.4206C82.8138 17.8347 83.3757 18.4114 83.7454 19.1509C84.1299 19.8755 84.3222 20.6888 84.3222 21.5909C84.3222 22.5669 84.093 23.4394 83.6345 24.2084C83.1909 24.9626 82.5624 25.5542 81.749 25.983L84.8102 32.0166H80.3737L77.845 26.6485H74.3623V32.0166H70.3917ZM74.3623 23.6982H78.4661C79.0132 23.6982 79.4495 23.5208 79.7748 23.1659C80.115 22.7961 80.285 22.3081 80.285 21.7018C80.285 21.3025 80.2111 20.9624 80.0632 20.6814C79.9153 20.4005 79.7083 20.186 79.4421 20.0381C79.1759 19.8755 78.8506 19.7941 78.4661 19.7941H74.3623V23.6982Z" fill="black" fill-opacity="0.2"/>
<rect x="2.1145" y="16.791" width="2.1146" height="15.2263" fill="#A31E23"/>
<rect y="16.791" width="2.1146" height="15.2263" fill="#FDBE11"/>
<defs>
<linearGradient id="paint0_linear_4232_1010" x1="80.8681" y1="35.1296" x2="131.374" y2="12.8285" gradientUnits="userSpaceOnUse">
<stop stop-color="#FDB602"/>
<stop offset="1" stop-color="#A90401"/>
</linearGradient>
<linearGradient id="paint1_linear_4232_1010" x1="80.8681" y1="35.1296" x2="131.374" y2="12.8285" gradientUnits="userSpaceOnUse">
<stop stop-color="#FDB602"/>
<stop offset="1" stop-color="#A90401"/>
</linearGradient>
</defs>
</svg>
